<svg id="icons" height="512" viewBox="0 0 340 340" width="512" xmlns="http://www.w3.org/2000/svg"><path d="m331.75 65.629a57.379 57.379 0 1 0 -77.437 53.771 25.911 25.911 0 0 1 -7.292 15.852s18.852-.259 29.092-12.285a57.368 57.368 0 0 0 55.637-57.338z" fill="#fc6"/><path d="m191.9 184.16-56.593-64.746a8.5 8.5 0 0 0 -11.805-.966l-38.316 31.571h-32.086v17h35.136a8.5 8.5 0 0 0 5.406-1.94l34.3-28.261 41.378 47.342z" fill="#f74f73"/><path d="m302.922 149.239-44.765 13.332 8.3 9.082-31.535 29.047h-78.26a8.5 8.5 0 0 0 -5.76 2.248l-81.087 74.7 11.519 12.5 78.646-72.448h78.26a8.5 8.5 0 0 0 5.76-2.249l33.917-31.245 7.68 8.409z" fill="#71d884"/><path d="m271.683 287.966-12.443-45.02-9.031 7.926-16.356-18.713h-22.579l26.158 29.926-8.773 7.7z" fill="#f74f73"/><path d="m301.688 312.651a3.5 3.5 0 0 0 -3.5 3.5v8.6h-41.323v-8.6a3.5 3.5 0 0 0 -7 0v8.6h-41.323v-8.6a3.5 3.5 0 0 0 -7 0v8.6h-41.323v-8.6a3.5 3.5 0 0 0 -7 0v8.6h-41.319v-8.6a3.5 3.5 0 0 0 -7 0v8.6h-41.327v-8.6a3.5 3.5 0 0 0 -7 0v8.6h-41.323v-41.324h8.6a3.5 3.5 0 0 0 0-7h-8.6v-41.327h8.6a3.5 3.5 0 0 0 0-7h-8.6v-41.319h8.6a3.5 3.5 0 0 0 0-7h-8.6v-41.323h8.6a3.5 3.5 0 0 0 0-7h-8.6v-41.323h8.6a3.5 3.5 0 1 0 0-7h-8.6v-41.323h8.6a3.5 3.5 0 1 0 0-7h-12.1a3.5 3.5 0 0 0 -3.5 3.5v289.938a3.5 3.5 0 0 0 3.5 3.5h289.938a3.5 3.5 0 0 0 3.5-3.5v-12.1a3.5 3.5 0 0 0 -3.5-3.499z" fill="#43485e"/><path d="m279.541 62.188h-8.3a6.32 6.32 0 1 1 0-12.64h8.58a6.049 6.049 0 0 1 5.692 4.019 3.5 3.5 0 0 0 6.6-2.339 13.062 13.062 0 0 0 -12.29-8.68h-.932v-3.007a3.5 3.5 0 0 0 -7 0v3.007h-.648a13.32 13.32 0 1 0 0 26.64h8.3a6.321 6.321 0 0 1 0 12.642h-8.583a6.031 6.031 0 0 1 -5.563-3.688 3.5 3.5 0 1 0 -6.447 2.727 13.018 13.018 0 0 0 12.01 7.961h.933v3.006a3.5 3.5 0 1 0 7 0v-3.006h.648a13.321 13.321 0 0 0 0-26.642z" fill="#fff"/><g fill="#43485e"><path d="m12.172 331.609h289.938a3.5 3.5 0 0 0 3.5-3.5v-12.1a3.5 3.5 0 0 0 -7 0v8.6h-41.323v-8.6a3.5 3.5 0 1 0 -7 0v8.6h-41.323v-8.6a3.5 3.5 0 0 0 -7 0v8.6h-41.323v-8.6a3.5 3.5 0 0 0 -7 0v8.6h-41.323v-8.6a3.5 3.5 0 0 0 -7 0v8.6h-41.318v-8.6a3.5 3.5 0 0 0 -7 0v8.6h-41.328v-41.322h8.6a3.5 3.5 0 1 0 0-7h-8.6v-41.324h8.6a3.5 3.5 0 0 0 0-7h-8.6v-41.322h8.6a3.5 3.5 0 0 0 0-7h-8.6v-41.324h8.6a3.5 3.5 0 1 0 0-7h-8.6v-41.317h8.6a3.5 3.5 0 0 0 0-7h-8.6v-41.329h8.6a3.5 3.5 0 0 0 0-7h-12.1a3.5 3.5 0 0 0 -3.5 3.5v289.938a3.5 3.5 0 0 0 3.5 3.5z"/><path d="m79.182 292.38a3.5 3.5 0 0 0 4.945.2l77.642-71.524h76.893a11.971 11.971 0 0 0 8.131-3.174l31.332-28.864 5.31 5.813a3.5 3.5 0 0 0 5.835-1.062l17.324-43.369a3.5 3.5 0 0 0 -4.249-4.653l-44.765 13.329a3.5 3.5 0 0 0 -1.58 5.715l5.945 6.509-27.962 25.759h-76.899a11.974 11.974 0 0 0 -8.131 3.174l-81.087 74.7a3.5 3.5 0 0 0 -.2 4.945zm74.513-87a4.992 4.992 0 0 1 3.389-1.323h78.26a3.5 3.5 0 0 0 2.371-.926l31.531-29.046a3.5 3.5 0 0 0 .213-4.935l-4.531-4.961 32.483-9.674-12.572 31.475-3.916-4.287a3.5 3.5 0 0 0 -4.956-.214l-33.917 31.247a4.987 4.987 0 0 1 -3.388 1.323h-78.262a3.5 3.5 0 0 0 -2.372.926l-76.069 70.078-6.776-7.355z"/></g></svg>